REM COMMENT "Generated by IcecastMetadataRecorder https://github.com/eshaz/icecast-metadata-js"
REM BR "16"
REM METAINT "64"
REM DATE "2020-07-29T21:16:11.222Z"
TITLE "isics-all"
FILE "isics-all.mp3" WAVE
  TRACK 1 AUDIO
    TITLE "2020-07-29T21:33:03.446Z TO:24605 Dallas County Law 1 FROM:2559984"
    INDEX 01 16:52:17
  TRACK 2 AUDIO
    TITLE "2020-07-29T21:33:06.934Z TO:1101 Polk County - Westcom Law Enforcement 1 FROM:1004"
    INDEX 01 16:55:53
  TRACK 3 AUDIO
    TITLE "2020-07-29T21:33:09.046Z TO:1101 Polk County - Westcom Law Enforcement 1 FROM:8633"
    INDEX 01 16:57:62
  TRACK 4 AUDIO
    TITLE "2020-07-29T21:33:13.238Z TO:24631 Dallas County Fire/EMS Operations FROM:2520301"
    INDEX 01 17:02:01
  TRACK 5 AUDIO
    TITLE "2020-07-29T21:33:16.726Z TO:91 Polk County - West Des Moines EMS FROM:1901"
    INDEX 01 17:05:38
  TRACK 6 AUDIO
    TITLE "2020-07-29T21:33:19.542Z TO:1101 Polk County - Westcom Law Enforcement 1 FROM:1004"
    INDEX 01 17:08:24
  TRACK 7 AUDIO
    TITLE "2020-07-29T21:33:21.622Z TO:24631 Dallas County Fire/EMS Operations FROM:UNKNOWN"
    INDEX 01 17:10:30
  TRACK 8 AUDIO
    TITLE "2020-07-29T21:33:23.734Z TO:91 Polk County - West Des Moines EMS FROM:123"
    INDEX 01 17:12:38
  TRACK 9 AUDIO
    TITLE "2020-07-29T21:33:26.550Z TO:91 Polk County - West Des Moines EMS FROM:1901"
    INDEX 01 17:15:25
  TRACK 10 AUDIO
    TITLE "END"
    INDEX 01 17:18:08